/* XPM */
static char * C:\Documents and Settings\Tim Hayes\Desktop\orcacoin\share\pixmaps\bitcoin64_xpm[] = {
"64 64 558 2",
"  	c None",
". 	c #3F3F3F",
"+ 	c #5A5A5A",
"@ 	c #474746",
"# 	c #4C4C4B",
"$ 	c #545453",
"% 	c #555554",
"& 	c #4C4D4C",
"* 	c #474747",
"= 	c #5D5D5C",
"- 	c #545454",
"; 	c #4D4D4C",
"> 	c #4D4D4D",
", 	c #434342",
"' 	c #454545",
") 	c #3B3C3B",
"! 	c #3C3C3C",
"~ 	c #3B3B3B",
"{ 	c #3F3F3E",
"] 	c #3D3D3D",
"^ 	c #464646",
"/ 	c #525252",
"( 	c #5F605F",
"_ 	c #464645",
": 	c #4B4B4B",
"< 	c #424243",
"[ 	c #414140",
"} 	c #3A3A39",
"| 	c #353534",
"1 	c #3E3F3E",
"2 	c #4E4E4E",
"3 	c #565756",
"4 	c #575757",
"5 	c #545554",
"6 	c #363636",
"7 	c #373736",
"8 	c #3E3E3D",
"9 	c #484848",
"0 	c #565655",
"a 	c #4B4B4A",
"b 	c #424242",
"c 	c #424342",
"d 	c #393938",
"e 	c #343433",
"f 	c #434242",
"g 	c #575857",
"h 	c #6F6F6F",
"i 	c #848484",
"j 	c #888888",
"k 	c #8D8D8D",
"l 	c #959595",
"m 	c #989898",
"n 	c #979797",
"o 	c #929292",
"p 	c #8C8C8C",
"q 	c #838383",
"r 	c #7B7B7B",
"s 	c #6B6B6C",
"t 	c #525251",
"u 	c #414141",
"v 	c #373737",
"w 	c #626161",
"x 	c #464546",
"y 	c #464746",
"z 	c #383837",
"A 	c #575656",
"B 	c #8A8A8A",
"C 	c #999999",
"D 	c #A4A4A4",
"E 	c #B3B3B3",
"F 	c #CBCBCB",
"G 	c #D7D7D7",
"H 	c #E2E2E2",
"I 	c #E4E4E4",
"J 	c #E5E5E5",
"K 	c #E3E3E3",
"L 	c #DEDEDE",
"M 	c #D6D6D6",
"N 	c #C5C5C5",
"O 	c #AEAEAE",
"P 	c #9C9C9C",
"Q 	c #818181",
"R 	c #6E6E6E",
"S 	c #505050",
"T 	c #363736",
"U 	c #555454",
"V 	c #444544",
"W 	c #A9A9A9",
"X 	c #CCCCCC",
"Y 	c #DFDFDF",
"Z 	c #F2F2F2",
"` 	c #ECECEC",
" .	c #EAEAEA",
"..	c #E9E9E9",
"+.	c #E8E8E8",
"@.	c #E7E7E7",
"#.	c #FEFEFE",
"$.	c #FFFFFF",
"%.	c #DADADA",
"&.	c #BFBFBF",
"*.	c #9D9D9D",
"=.	c #8B8B8B",
"-.	c #7C7C7C",
";.	c #3C3D3C",
">.	c #40403F",
",.	c #454546",
"'.	c #5C5D5C",
").	c #4A4A4A",
"!.	c #464545",
"~.	c #3D3E3D",
"{.	c #353535",
"].	c #868686",
"^.	c #9A9A9A",
"/.	c #B0B0B0",
"(.	c #F1F1F1",
"_.	c #EDEDED",
":.	c #C2C2C2",
"<.	c #6B6B6B",
"[.	c #D9D9D9",
"}.	c #F0F0F0",
"|.	c #EFEFEF",
"1.	c #C4C4C4",
"2.	c #D4D4D4",
"3.	c #A3A3A3",
"4.	c #909090",
"5.	c #737373",
"6.	c #3A3B3A",
"7.	c #373738",
"8.	c #787878",
"9.	c #929291",
"0.	c #ADADAD",
"a.	c #F3F3F3",
"b.	c #EEEEEE",
"c.	c #6A6A6A",
"d.	c #656565",
"e.	c #FAFAFA",
"f.	c #F8F8F8",
"g.	c #F9F9F9",
"h.	c #F7F7F7",
"i.	c #676767",
"j.	c #646464",
"k.	c #EBEBEB",
"l.	c #CECECE",
"m.	c #A2A2A2",
"n.	c #4C4C4C",
"o.	c #444443",
"p.	c #50504F",
"q.	c #858585",
"r.	c #D0D0D0",
"s.	c #F6F6F6",
"t.	c #F5F5F5",
"u.	c #C6C6C6",
"v.	c #6D6D6D",
"w.	c #B9B9B9",
"x.	c #919191",
"y.	c #494949",
"z.	c #3F403F",
"A.	c #494A49",
"B.	c #434343",
"C.	c #333332",
"D.	c #5D5D5E",
"E.	c #BCBCBC",
"F.	c #9B9B9B",
"G.	c #FCFCFC",
"H.	c #FDFDFD",
"I.	c #FBFBFB",
"J.	c #ACACAC",
"K.	c #A0A0A0",
"L.	c #7F7F7F",
"M.	c #7D7D7D",
"N.	c #949494",
"O.	c #B6B6B6",
"P.	c #D2D2D2",
"Q.	c #4C4D4D",
"R.	c #656564",
"S.	c #8F8F8F",
"T.	c #565656",
"U.	c #DDDDDD",
"V.	c #A7A7A7",
"W.	c #D3D3D3",
"X.	c #DBDBDB",
"Y.	c #D5D5D5",
"Z.	c #CFCFCF",
"`.	c #C7C7C7",
" +	c #B2B2B2",
".+	c #AAAAAA",
"++	c #9E9E9E",
"@+	c #808080",
"#+	c #5D5D5D",
"$+	c #939393",
"%+	c #F4F4F4",
"&+	c #ABABAB",
"*+	c #CACACA",
"=+	c #9F9F9F",
"-+	c #515151",
";+	c #616161",
">+	c #A1A1A1",
",+	c #4F4F4F",
"'+	c #353635",
")+	c #535353",
"!+	c #B5B5B5",
"~+	c #969696",
"{+	c #BBBBBB",
"]+	c #E6E6E6",
"^+	c #7A7A7A",
"/+	c #4E4F4E",
"(+	c #3E3E3E",
"_+	c #898989",
":+	c #AFAFAF",
"<+	c #707070",
"[+	c #C8C8C8",
"}+	c #727272",
"|+	c #474646",
"1+	c #8E8E8E",
"2+	c #636363",
"3+	c #343434",
"4+	c #626262",
"5+	c #D1D1D1",
"6+	c #5C5C5C",
"7+	c #595959",
"8+	c #B4B4B4",
"9+	c #444444",
"0+	c #515150",
"a+	c #4A4A49",
"b+	c #424241",
"c+	c #B7B7B7",
"d+	c #454544",
"e+	c #666666",
"f+	c #CDCDCD",
"g+	c #878787",
"h+	c #C0C0C0",
"i+	c #454645",
"j+	c #BEBEBE",
"k+	c #000000",
"l+	c #181818",
"m+	c #242424",
"n+	c #0F0F0F",
"o+	c #5E5E5E",
"p+	c #BDBDBD",
"q+	c #DCDCDC",
"r+	c #686868",
"s+	c #BABABA",
"t+	c #DEDDDD",
"u+	c #2E2E2E",
"v+	c #171717",
"w+	c #606060",
"x+	c #393939",
"y+	c #191919",
"z+	c #5F5F5F",
"A+	c #767676",
"B+	c #202020",
"C+	c #565757",
"D+	c #555655",
"E+	c #E2E3E3",
"F+	c #717777",
"G+	c #141314",
"H+	c #131313",
"I+	c #5B5B5B",
"J+	c #0E0E0E",
"K+	c #333333",
"L+	c #0D0D0D",
"M+	c #7E7E7E",
"N+	c #E0E0E0",
"O+	c #B2B2B1",
"P+	c #D2D5D7",
"Q+	c #BBC3C3",
"R+	c #E2EBEC",
"S+	c #3F4142",
"T+	c #1F1F1F",
"U+	c #0E0F0F",
"V+	c #030303",
"W+	c #2B2B2B",
"X+	c #B8B8B8",
"Y+	c #5A5B5A",
"Z+	c #363635",
"`+	c #9D9292",
" @	c #906D6D",
".@	c #A89899",
"+@	c #D6DEDC",
"@@	c #383939",
"#@	c #141414",
"$@	c #111111",
"%@	c #D8D8D8",
"&@	c #828282",
"*@	c #B5ABAA",
"=@	c #4B0000",
"-@	c #523E3E",
";@	c #A4A2A2",
">@	c #B5BBBC",
",@	c #292929",
"'@	c #050505",
")@	c #151515",
"!@	c #080808",
"~@	c #0C0C0C",
"{@	c #5E5F5E",
"]@	c #C9C9C9",
"^@	c #784042",
"/@	c #33120E",
"(@	c #160000",
"_@	c #C1C0C0",
":@	c #ADB3B3",
"<@	c #09090A",
"[@	c #121212",
"}@	c #1A1A1A",
"|@	c #101010",
"1@	c #5D6161",
"2@	c #20201F",
"3@	c #3A3A3A",
"4@	c #A5A5A5",
"5@	c #4D4E4D",
"6@	c #4D4C4C",
"7@	c #A69593",
"8@	c #500104",
"9@	c #6B2D2A",
"0@	c #49100D",
"a@	c #B8C3C5",
"b@	c #060504",
"c@	c #121111",
"d@	c #959A9B",
"e@	c #E7F3F5",
"f@	c #727678",
"g@	c #C3C3C3",
"h@	c #797979",
"i@	c #8F6768",
"j@	c #580304",
"k@	c #AE494D",
"l@	c #DB6C79",
"m@	c #D05F6B",
"n@	c #AC5256",
"o@	c #9D6667",
"p@	c #BDCCCE",
"q@	c #090808",
"r@	c #040404",
"s@	c #D8E2E4",
"t@	c #E3EEF0",
"u@	c #C3CBCC",
"v@	c #252525",
"w@	c #2D2D2D",
"x@	c #555555",
"y@	c #EAE9EA",
"z@	c #A6A3A2",
"A@	c #AA6F6F",
"B@	c #EE7386",
"C@	c #EC7688",
"D@	c #ED7587",
"E@	c #EC8193",
"F@	c #F17B8F",
"G@	c #B67278",
"H@	c #C6CBCB",
"I@	c #3A3C3C",
"J@	c #EBF5F7",
"K@	c #D2DBDD",
"L@	c #010101",
"M@	c #3D3D3C",
"N@	c #5B5B5A",
"O@	c #D5DDDC",
"P@	c #BBC0C2",
"Q@	c #BC858A",
"R@	c #DC8492",
"S@	c #D7838F",
"T@	c #D88394",
"U@	c #DA6778",
"V@	c #D68A97",
"W@	c #CAC7C9",
"X@	c #E1EEEF",
"Y@	c #030202",
"Z@	c #0B0A0A",
"`@	c #BEC7C9",
" #	c #E2EDEF",
".#	c #9FA7A9",
"+#	c #1C1C1C",
"@#	c #A8A8A8",
"##	c #6E6E6F",
"$#	c #CED2D2",
"%#	c #DCE8E8",
"&#	c #CEDCDB",
"*#	c #BFC6C6",
"=#	c #B9CAC8",
"-#	c #DDF2F0",
";#	c #E5F3F4",
">#	c #F3FEFF",
",#	c #252626",
"'#	c #434646",
")#	c #D5E0E2",
"!#	c #323333",
"~#	c #6C6C6C",
"{#	c #383938",
"]#	c #4E4E4D",
"^#	c #E1E2E2",
"/#	c #DAE6E6",
"(#	c #E4EFF0",
"_#	c #E3EFF0",
":#	c #E4EFF2",
"<#	c #E4F0F2",
"[#	c #666969",
"}#	c #060505",
"|#	c #070707",
"1#	c #B1B1B1",
"2#	c #6C6D6D",
"3#	c #393838",
"4#	c #494947",
"5#	c #383838",
"6#	c #C8D2D2",
"7#	c #E4F0F1",
"8#	c #F5FFFF",
"9#	c #1E1E1E",
"0#	c #0B0B0B",
"a#	c #1B1B1B",
"b#	c #D2D7D5",
"c#	c #DCE7E9",
"d#	c #EBF8F9",
"e#	c #1E1C1D",
"f#	c #0A0A0A",
"g#	c #767778",
"h#	c #373636",
"i#	c #E1E1E1",
"j#	c #CAD4D2",
"k#	c #E4F0F0",
"l#	c #F2FDFF",
"m#	c #242324",
"n#	c #151314",
"o#	c #0F0E0F",
"p#	c #333435",
"q#	c #131213",
"r#	c #090909",
"s#	c #585858",
"t#	c #939392",
"u#	c #D7D9D8",
"v#	c #DBE6E6",
"w#	c #EAF5F7",
"x#	c #595B5B",
"y#	c #0E0D0D",
"z#	c #545655",
"A#	c #151415",
"B#	c #E1EBED",
"C#	c #F1FEFF",
"D#	c #626666",
"E#	c #141413",
"F#	c #696969",
"G#	c #404040",
"H#	c #626261",
"I#	c #CBCFD1",
"J#	c #DFEBEC",
"K#	c #E5F0F1",
"L#	c #E4EFF1",
"M#	c #8D9092",
"N#	c #100F0F",
"O#	c #AAB2B5",
"P#	c #A3A8AA",
"Q#	c #D5DFDF",
"R#	c #E2ECEF",
"S#	c #EDFAFB",
"T#	c #282829",
"U#	c #141514",
"V#	c #151414",
"W#	c #0D0E0D",
"X#	c #696C6C",
"Y#	c #959899",
"Z#	c #5C5E5F",
"`#	c #DCE7E6",
" $	c #DEE9EB",
".$	c #E5EFF2",
"+$	c #CED6D8",
"@$	c #161615",
"#$	c #A6ADAF",
"$$	c #E4F1F1",
"%$	c #686D6E",
"&$	c #646869",
"*$	c #B2BCBC",
"=$	c #E5EEED",
"-$	c #D6DAD9",
";$	c #FBFBFA",
">$	c #222222",
",$	c #60605F",
"'$	c #1D1D1D",
")$	c #C4C3C3",
"!$	c #C2CAC9",
"~$	c #D6E3E1",
"{$	c #E2EEEE",
"]$	c #F0FDFF",
"^$	c #414243",
"/$	c #0C0B0B",
"($	c #BAC3C5",
"_$	c #E3F0F0",
":$	c #C8D2D4",
"<$	c #D3D6D7",
"[$	c #F3F1F2",
"}$	c #EBEBEC",
"|$	c #3D3C3C",
"1$	c #D5D8D8",
"2$	c #CACFCE",
"3$	c #C0C9CB",
"4$	c #D5E2E2",
"5$	c #A8B0B0",
"6$	c #D2DADA",
"7$	c #DCE6E9",
"8$	c #DBE7E9",
"9$	c #DBE8EA",
"0$	c #D9E3E4",
"a$	c #C0C9CA",
"b$	c #D0D5D6",
"c$	c #D4D7D7",
"d$	c #747474",
"e$	c #585757",
"f$	c #FFFEFE",
"g$	c #D8D9D9",
"h$	c #E6E7E7",
"i$	c #ECF1F1",
"j$	c #DEE2E1",
"k$	c #DBDDDD",
"l$	c #E3E4E4",
"m$	c #4F4F4E",
"n$	c #3A3939",
"o$	c #646463",
"p$	c #696A6A",
"q$	c #3F3E3E",
"r$	c #403F3F",
"s$	c #4F4E4E",
"t$	c #757575",
"u$	c #3C3B3B",
"v$	c #3B3A3A",
"w$	c #383737",
"x$	c #565657",
"y$	c #404140",
"z$	c #636464",
"A$	c #2B2A2A",
"B$	c #2D2D2C",
"C$	c #484747",
"D$	c #585859",
"E$	c #3B3C3C",
"F$	c #646465",
"G$	c #292928",
"H$	c #5D5E5D",
"I$	c #4C4E4E",
"J$	c #232323",
"K$	c #4F5050",
"L$	c #4B4C4B",
"M$	c #3B3B3A",
"N$	c #4B4B4C",
"O$	c #303130",
"P$	c #333232",
"Q$	c #585958",
"R$	c #626263",
"S$	c #4D4E4E",
"T$	c #434444",
"U$	c #272726",
"V$	c #494948",
"W$	c #414241",
"X$	c #424343",
"Y$	c #262626",
"Z$	c #2F2F2F",
"`$	c #474847",
" %	c #373837",
".%	c #2F2F2E",
"+%	c #313131",
"@%	c #353435",
"#%	c #505151",
"$%	c #484847",
"                                                                                                                                ",
"                                                                                                                                ",
"                                                      . + @ # $ % & * = -                                                       ",
"                                              ; > , , ' ) ! ! ~ ~ ! { ] . # ^ / (                                               ",
"                                        _ : < [ } | | 1 : 2 - 3 4 5 ; * { 6 7 8 { 9 0                                           ",
"                                    a b c d e f g h i j k l m m n l o p q r s t u v . b 2 w                                     ",
"                                x y [ z ~ A r B C D E F G H I J J K L M N O P o Q R S T 8 u U                                   ",
"                              ^ V 7 ~ = i n W X Y Z Z `  ...+. . .+.+.@.` #.$.%.&.*.=.-./ ;.>.,.'.                              ",
"                          ).!.~.{.4 ].^./.L (.`  ._.:.<.[.}.(.(.(.(.}.|.L b > 1.}.` 2.3.4.5.: 6., /                             ",
"                        ^ ' 7.8 8.9.0.+.a.+._.b.(.Z c.$.d.e.f.g.g.g.f.h.i.$.$.j.|.k.+.}.l.m.i j.. [ n.                          ",
"                      ' o.{.p.q.m.r.s.D Z |.Z t.f.g./.u.].$.#.$.$.#.$.#.O ].v.u.a.(.b.k...` w.x.5.y.z.A.                        ",
"                    _ B.C.D.p 0.I ` ` E.F.t.g.G.H.I.G J.K.i i L.M.M.q.N.O.u.I $.I.h.t.}.`  .|.P.^.-.Q.>.y.                      ",
"                  @ ' e R.S.O.b.k.k.(.I.T.$.H.U.m.x.V.W.Y %.%.X.Y.P.Z.`. +=.4..+b.#.I.h.a.b.}.b.K ++@+S >.).                    ",
"                > ^ | #+$+w.(.+.` %+h.G.|.l.m &+%.I @.@.@.@.@.@.@.+.+.@.+.@.L *+l =+Z H.g.#.-+;+(.k.>+L.,+[ :                   ",
"                ^ '+)+o !+(. .|.%+f.I.g.K.m.L @.@.@.@.@.@.@.@.@.@.@.@.@.@.@.@.@.Y Z.$+w.#.~+{+f._.]+ .K.^+)., /+                ",
"              @ (+, _+:+(.Z <+[+f.H.K B X J @.@.@.]+@.@.@.@.@.@.@.@.@.@.]+@.@.@.@.]+L w.N.G.G.s.(. .@.K ~+}+' _ 0               ",
"            |+V v L.3.@. .j.}.S $.Z.l Y @.@.@.@.@.K ]+@.@.@.@.@.@.@.@.@.@.@.@.@.@.@.@.I M *._.G.h.a.`  .Z.1+2+B.9               ",
"            * 3+4+C 5+k.b.O.6+7+M F.K @.@.@.@.@.@.@.@.@.@.@.@.@.@.@.@.@.@.@.@.@.@.@.@.@.@.]+O b.e.t.|...(.8+Q )+9+0+            ",
"          a+b+b j O.Z _.}.f.$.K o H @.@.@.]+@.@.@.@.@.@.@.@.@.]+@.@.]+@.@.@.]+@.@.@.@.@.@.@.@.c+%+I.%+(. .k.^.<+d+*             ",
"          B.3+R m.K @.(.s.G.Z 4.Y @.(.]+=+$+[+Z ]+@.@.@.@.]+X e+X f+<.w.(.g+c.X.F *+@.@.@.@.@.]+h+e. .9 9+K f+j 7+i+S           ",
"        , 9+' k j+}.` Z g.G.=+[...a.c.k+l+m+n+o+L  .@.@.@.h.^ $.^ p+q+n.k j+t.q+5.5...@.@.@.@.@.Y f+q+@++.U.s.++<+^ 9           ",
"        n.3+r+>+K  .|.s.e.Z.s+t+|.u+v+,+o+w+2+x+y+u.(.@.@.G.z+a.w+u.2 A+<+Z }.f.B+m+a.@.@.@.@.@.+. +%+P.$.h.h.*+_+C+b D+        ",
"        >.x+].E a.%+Z e.H.1+E+F+G+H+' I+u+J+J+K+. L+%.@.@.+.C 4+C {+{+M++.7+w+M.N+N+P @.@.@.@.@.@.I .+$.#.H.g.Z $+d.2 ).        ",
"      y , S ~+Y.Z r+|.k.*+O+P+Q+R+S+T+U+H+H+H+V+W+H+6 a.@.@.@.|.+..... .+. ._.k.@.@.k.@.@.@.@.@.@. .V.a.$.#.e.G.X+A+y.* Y+      ",
"      2 Z+<.K. .L j.0.O ^...`+ @.@+@@@#@H+#@3+N+#@H+$@L.a._.f.f.U.Y t.|.` @.@.@.@.@.@.@.@.@.@.@.@.@.%.8+$.I.e.a.%@=.o+{ %       ",
"      . T &@:+%+b.j+++a. +]+*@=@-@;@>@$@H+H+,@T.'@H+H+J+%@j+^+m+)@!@~@U.(.@.@.@.@.@.@.@.@.@.@.@.@.@.]+S.$.I.f.a.` l {@2 ,+      ",
"      [ u k ]@_.b.t.H.`.q+J $.^@/@(@_@:@<@H+H+[@}@H+|@1@2@3@|@H+#@w+}.Z _.@.@.@...+.@.@.@.@.+.@.@.@.@.F._.#.Y U.f.4@c.5@a       ",
"      * 6@n q+@.}.s.$. ++.J $.7@8@9@0@M+a@b@H+H+H+c@d@e@f@W+H+[@v.s.@.+.+.@.@.@.....@.@.@.@.@.+.@.@.+.&.g@..6 -.k w.h@- '       ",
"    n.~ I+P N+k.}.t.$. ++.+.i@j@k@l@m@n@o@p@q@#@H+r@s@t@u@v@L+w@H.@.@. .@.@.@.@.....@.@.@.@.@.@.@.@.@.[.V.$.~ ).X.Z.@+5 9+)+    ",
"    x@v ;+m.@. .Z e.g.E @.y@z@A@B@C@D@E@F@G@H@I@H+k+J@t@K@L@,@O k.@.+._.@.@.@.@.s.Z.+.@.@.@.@.@.@.@.@.I W I.$.(.J M q.e+M@N@    ",
"    @ 7 r+3._. .Z g.(. +@...O@P@Q@R@S@T@U@V@W@X@Y@Z@`@ #.#|@+#e.}.]+@.@.@.@.@. .++2+(.@.@.@.@.@.@.@.@...@#$.s.}.K L j ##} $     ",
"    ) v <.4@|.Z K ]+|./.@.@.$#%#&#*#$#=#-#;#t@>#,##@'#)#!#H+L+S.H._.+.@.@.@.+.g.7+[@a.@.@.@.@.@.@.@.@.+.W $.s.}.]+N+B ~#{#]#    ",
"    ~.v v.4@(.R ~ + g./.@.J ^#/#(#_#:#_#t@t@t@<#[##@H+}##@H+H+|#&+$.Z  . .+.+.$.6 H+$+..@.@.@.@.@.@.@.+.1##.s.}.]+Y _+2#3#&     ",
"    4#5#i.m.b.C $+I+I.:+@.]+|.6#7#t@t@t@t@t@t@8#9#H+H+H+H+H+H+H+0#<.e.$.g.a.a.$.v@H+a#k._. .+.@.@.@.@.+. +$.s.}.K L ].<+7 t     ",
"    7+z ;+=+]+b.f.$.e.K.]+@.k.b#c#t@t@t@t@t@t@d#e#H+H+H+H+H+H+H+H+H+f#/ S.F.S.I+~@H+'@#.$.#.a.@.@.@.@...c+$.I.h.]+2.i g#h#N@    ",
"    t x+6+^.i#|.t.G.$.m K @.+...j#k#t@t@t@t@t@l#m#H+H+#@H+n#o#p#L+H+H+H+H+[@q#H+H+H+y+k+r#w+%+` @.@.@.@.p+$.d./ r.f+M+2+M@s#    ",
"      ' n.t#%.|.s.G.$.K.[.@.@.b.u#v#k#t@t@t@t@w#x#$@y#z#r#A#B#C#D#E#H+H+H+H+#@L+~@f#H+T+[@#@$@l.(.k.+.X.l.$.F#%+h !+8.2+G#H#    ",
"      [ b _+`.s.h.H.#.N !+@.@.@.t.I#J#K#t@t@t@L#M#y#N#O#P#Q#R#t@S#T#U#V#W##@X#Y#:.Y.-+y.5#J+|@'@j $. .:._.f.s.Z...K.r+4 9       ",
"      a+v M.J.G.g.#.$.%+k i#@.+.%+=+Z#`# $.$t@t@+$@$N##$ #t@t@t@t@$$%$&$*$=$-$;$g.e.$.O.2 W+>$H+L@9 b.E.H.s.b.@. .x.-+,$).      ",
"      S 3#i.*.k.h.G.g.$.n q+@.+.$.v '$)$!$~$/#{$]$^$/$($t@t@t@t@L#K#_$:$<$[$}$` ..k.a.f.$.a.]@1.@.H.I Z.H.Z b.I Y.i e+G#3       ",
"        |$S 1+Y.@.F =+{+5+:+K +.Y g+$.%+H.1$2$3$4$5$k+6$7$8$9$0$a$b$c$G.Z  .@.@.@.@.@.+. ...+.+.` ]+l.Z g.Z ..}.8+d$j.~ e$      ",
"        * 3@Q &+$.! x@P.$.k %@@.|.s.+.@.+.}.G.f$g$h$m+i$j$k$k$l$$.e.|. .@.@.@.@.@.@.@.@.@.@.@.@.@.]+F I.s.b.]+ .k + #+*         ",
"        m$n$o$C K b.(.h.G.2.@#J @.]+@.]+@.@.@. .}.Z U.%+` `  . .` ..@.@.@.@.@.@.@.@.@.@.@...@.@.@.r.|.I.h. .+.u.M+p$q$/         ",
"          G#9+g+{+}.` (.f.$.m.J @.@.@.]+@.@.@.@.@.@.@.@.@.@.@.@.@.@.@.@.@.@.@.@.@.@.@.@.@.@.@.@.J U.$.g+x@X.Z l F#+ r$o+        ",
"          s$} i.m K +.|.t.I.h.3. .@.@.@.@.@.@.@.@.@.@.@.@.@.@.@.@.@.@.@.@.@.]+@.@.@.@.@.@.@.@.+.P.I.$.e+$.z+`.L.#+V >           ",
"            . ' &@0.a. .}.s.I.I +++.@.@.@.@.@.@.@.@.@.@.@.@.@.@.@.@.@.@.@.@.@.@.@.@.@.@.@.@.K /.t.g.e.t$* %@x.;+7+u$4           ",
"            ,+v$w+S.l.k.k.(.s.$.5+N.]+@.@.@.@.]+@.@.@.@.@.@.@.@.@.@.@.@.]+]+@.@.@.@.@.@.@.i#=.Z g.a.b.k.I.W t$w+w$n.            ",
"              9+M@d$m @.G K .+.+H.2.j L +.@.@.@.@.@.@.@.]+@.@.@.@.@.@.@.@.@.@.@.@.@.@.@.G p }.e.%+|.k...[+q x@x$y$7+            ",
"              I+v$: r V.|.K+K.f.h.G. ._+G @.@.@.@.@.@.@.@.@.@.@.@.@.@.@.@.@.@.@.@.+.I !+m g.$.%+}...J q+k ;+z$A$S               ",
"                S ) x@q.&+e.@._.a.h.e.$.D V.q+K @.@.@.@.@.@.@.@.@.@.@.@.@.@.@.+.@.2.k j+#.h.8+:+k.J ]+N.v.o+B$y.                ",
"                  C$! s#g+O }.J b.}.s.e.#.H n P W.@.+.@.@.@.@.@.@.@.+.@.@.I q+&.x.>+s.e.h.a.t.r+X+]+l 5.7+v b                   ",
"                    9+! #+q.@#|.+.k.}.%+g.e.H.J 4@4..+N l.%.Y L [.G 2.*+0.B q /.%+G.g.s.(.`  .%+m 1+d$D$~ 1 s#                  ",
"                      B.(+4 Q =+L k.@.b.Y i.M e.G.#.i#O n j _+&@&@&@p P j+k.$.e.f._.a.b. .J }.u.N.<.I+E$! t                     ",
"                        V ] ,+8.N.N |.%+* $.).$.t.f.g.#.H.$.$.$.$.$.$.G.f.e.a.$.W ~#@. ... .@#q 4+w+!#|$/                       ",
"                          @ M@y.j.q >+H r+s.+ h.|.(.a.%+t.h.h.s.s.s.s.t.%+Z }.(.7+g.)+}.N 1+h@/ F$G$G#3                         ",
"                            ).;., x@d$=.;+/ :+k.@...k.` b.b.b.|.b.|.b._.`  ...J X.: w.o Q w+H$I$J$^                             ",
"                              K$9+8 u I+t$k n h+[.Z (...]+]++.J ]+J ]+]+_.%+k.W./.p M.e+I+n.W+x+L$                              ",
"                                  ).. M$^ T.F#^+_+S.4@h+X [.q+i#Y U.Y.F O.^.B @+<+4 4+N$O$P$|+S                                 ",
"                                      ).z.] ;.* Q$z+<.8.L.Q ].].j ].@+r 5.j./ R$S$T$U${._ m$                                    ",
"                                          V$i+8 5#1 W$V$6@2+c.d.d.p$d.: K$X$b Y$Z$(+: >                                         ",
"                                                `$).u |$ %.%A$G$U$Y$G$+%@%{ ' ).S$                                              ",
"                                                        #%_ n.# n.n.: $%                                                        ",
"                                                                                                                                ",
"                                                                                                                                "};
