/* XPM */
static char * C:\Documents and Settings\Tim Hayes\Desktop\orcacoin\share\pixmaps\bitcoin16_xpm[] = {
"16 16 127 2",
"  	c None",
". 	c #393938",
"+ 	c #585858",
"@ 	c #949594",
"# 	c #B0B0B0",
"$ 	c #ADADAD",
"% 	c #999998",
"& 	c #535453",
"* 	c #404040",
"= 	c #444445",
"- 	c #B3B3B3",
"; 	c #F5F5F5",
"> 	c #D4D4D4",
", 	c #C3C3C3",
"' 	c #DDDDDD",
") 	c #9A9A9A",
"! 	c #FDFDFD",
"~ 	c #B1B1B1",
"{ 	c #464746",
"] 	c #454545",
"^ 	c #DADAD9",
"/ 	c #F9F9F9",
"( 	c #C2C2C2",
"_ 	c #D2D2D2",
": 	c #EBEBEB",
"< 	c #E7E7E7",
"[ 	c #CFCFCF",
"} 	c #D1D1D1",
"| 	c #D0D0D0",
"1 	c #D5D5D6",
"2 	c #474747",
"3 	c #3A3A39",
"4 	c #B7B7B7",
"5 	c #E5E5E5",
"6 	c #DADADA",
"7 	c #E1E1E1",
"8 	c #D7D7D7",
"9 	c #EFEFEF",
"0 	c #D9D9D9",
"a 	c #E9E9E9",
"b 	c #9E9E9E",
"c 	c #444444",
"d 	c #606060",
"e 	c #F3F3F3",
"f 	c #CED1D2",
"g 	c #4C4C4D",
"h 	c #111111",
"i 	c #A8A8A8",
"j 	c #9B9B9B",
"k 	c #C8C8C8",
"l 	c #AEAEAE",
"m 	c #E8E8E8",
"n 	c #FFFFFF",
"o 	c #555555",
"p 	c #9C9B9B",
"q 	c #CCCCCC",
"r 	c #C7BABA",
"s 	c #655E5C",
"t 	c #2F3232",
"u 	c #1B1C1D",
"v 	c #767575",
"w 	c #EEEEEE",
"x 	c #CECECE",
"y 	c #E4E4E4",
"z 	c #878787",
"A 	c #BFBFBF",
"B 	c #E7E7E6",
"C 	c #C5BEBE",
"D 	c #DE8691",
"E 	c #C7B0B4",
"F 	c #757B7B",
"G 	c #48494A",
"H 	c #C5C5C5",
"I 	c #E6E6E6",
"J 	c #E7E8E8",
"K 	c #E4F4F5",
"L 	c #FAFFFF",
"M 	c #000000",
"N 	c #676767",
"O 	c #AFAFAF",
"P 	c #2B2B2B",
"Q 	c #EAEAEA",
"R 	c #CBCBCB",
"S 	c #B5B6B6",
"T 	c #FEFEFE",
"U 	c #B2B6B6",
"V 	c #ECF9FB",
"W 	c #4C4E4F",
"X 	c #DDE4E5",
"Y 	c #767D7E",
"Z 	c #858787",
"` 	c #A8A9A8",
" .	c #373737",
"..	c #C7C7C7",
"+.	c #F1F1F1",
"@.	c #828282",
"#.	c #60605F",
"$.	c #C9C9C9",
"%.	c #C8CACA",
"&.	c #E5E8E9",
"*.	c #E8E7E7",
"=.	c #F0F0F0",
"-.	c #565657",
";.	c #3D3D3D",
">.	c #BABABA",
",.	c #E3E3E3",
"'.	c #979797",
").	c #434342",
"!.	c #494949",
"~.	c #C6C6C6",
"{.	c #F2F2F2",
"].	c #D5D5D5",
"^.	c #E2E2E2",
"/.	c #424242",
"(.	c #454645",
"_.	c #BEBEBE",
":.	c #9C9C9C",
"<.	c #D6D6D6",
"[.	c #A9A9A9",
"}.	c #434343",
"|.	c #393939",
"1.	c #5C5C5C",
"2.	c #898989",
"3.	c #ACACAC",
"4.	c #858585",
"5.	c #525252",
"6.	c #373837",
"                                ",
"        . + @ # $ % & *         ",
"      = - ; > , ' ) ! ~ {       ",
"    ] ^ / ( _ : < [ } | 1 2     ",
"  3 ( 4 5 : < 6 7 8 9 0 a b c   ",
"  d e f g h i | j k l m [ n o   ",
"  p q r s t u v ) w < < x y z   ",
"  A B C D E F G n w H I : H -   ",
"  ~ l J K L M M N O P Q a R S   ",
"  % T > U V W X Y Z `  ...+.@.  ",
"  #.$.0 w I %.&.Q *.5 =.I < -.  ",
"  ;.>.I _ Q < < < < : > ,.'.).  ",
"    !.~.{.6 | Q m ..].^., /.    ",
"      (._.:./ <.<.n 4 [.}.      ",
"        |.1.2.$ 3.4.5.6.        ",
"                                "};
