/* XPM */
static char * C:\Documents and Settings\Tim Hayes\Desktop\orcacoin\share\pixmaps\bitcoin32_xpm[] = {
"32 32 288 2",
"  	c None",
". 	c #4C4C4B",
"+ 	c #464646",
"@ 	c #444544",
"# 	c #454544",
"$ 	c #494949",
"% 	c #505050",
"& 	c #4B4B4B",
"* 	c #434342",
"= 	c #393938",
"- 	c #484948",
"; 	c #5C5C5B",
"> 	c #6B6B6B",
", 	c #747474",
"' 	c #737373",
") 	c #696969",
"! 	c #585858",
"~ 	c #484847",
"{ 	c #3A3A3A",
"] 	c #414241",
"^ 	c #3E3E3D",
"/ 	c #686868",
"( 	c #A0A0A1",
"_ 	c #C8C8C8",
": 	c #E1E1E1",
"< 	c #E8E8E8",
"[ 	c #EBEBEB",
"} 	c #E5E5E5",
"| 	c #CDCDCD",
"1 	c #929292",
"2 	c #5F605F",
"3 	c #3C3D3C",
"4 	c #4D4C4C",
"5 	c #393939",
"6 	c #626262",
"7 	c #B3B3B3",
"8 	c #DEDEDE",
"9 	c #F2F2F2",
"0 	c #F4F4F4",
"a 	c #9B9B9B",
"b 	c #C7C7C7",
"c 	c #F5F5F5",
"d 	c #F9F9F9",
"e 	c #979797",
"f 	c #F8F8F8",
"g 	c #D8D8D8",
"h 	c #9E9E9E",
"i 	c #575757",
"j 	c #424241",
"k 	c #474746",
"l 	c #3B3B3B",
"m 	c #838383",
"n 	c #D5D5D5",
"o 	c #CECECE",
"p 	c #E0E0E0",
"q 	c #FFFFFF",
"r 	c #BEBEBE",
"s 	c #A5A5A5",
"t 	c #BBBBBB",
"u 	c #B8B8B8",
"v 	c #C3C3C3",
"w 	c #ABABAB",
"x 	c #C9C9C9",
"y 	c #F7F7F7",
"z 	c #EFEFEF",
"A 	c #C6C6C6",
"B 	c #727272",
"C 	c #404140",
"D 	c #4B4B4A",
"E 	c #919190",
"F 	c #E6E6E6",
"G 	c #EDEDED",
"H 	c #C1C1C1",
"I 	c #B4B4B4",
"J 	c #D2D2D2",
"K 	c #E7E7E7",
"L 	c #E3E3E3",
"M 	c #C0C0C0",
"N 	c #B1B1B1",
"O 	c #C2C2C2",
"P 	c #79797A",
"Q 	c #393A39",
"R 	c #878787",
"S 	c #F3F3F3",
"T 	c #BDBDBD",
"U 	c #FCFCFC",
"V 	c #B5B5B5",
"W 	c #AEAEAE",
"X 	c #E9E9E9",
"Y 	c #DCDCDC",
"Z 	c #707070",
"` 	c #444444",
" .	c #404040",
"..	c #6A6A6A",
"+.	c #D6D6D6",
"@.	c #6C6C6C",
"#.	c #D9D9D9",
"$.	c #D0D0D0",
"%.	c #E2E2E2",
"&.	c #C4C4C4",
"*.	c #5B5B5B",
"=.	c #4C4C4C",
"-.	c #444443",
";.	c #F0F0F0",
">.	c #E4E4E4",
",.	c #B7B7B7",
"'.	c #BFBFBF",
").	c #DADADA",
"!.	c #ECECEC",
"~.	c #C5C5C5",
"{.	c #414140",
"].	c #757575",
"^.	c #F6F6F6",
"/.	c #1F1F1F",
"(.	c #3E3E3E",
"_.	c #363636",
":.	c #FDFDFD",
"<.	c #AAAAAA",
"[.	c #7B7B7B",
"}.	c #222222",
"|.	c #CCCCCC",
"1.	c #626363",
"2.	c #3D3D3D",
"3.	c #FBFBFB",
"4.	c #BABABA",
"5.	c #BFC6C7",
"6.	c #444748",
"7.	c #373737",
"8.	c #131313",
"9.	c #080808",
"0.	c #191919",
"a.	c #ACACAC",
"b.	c #A1A1A1",
"c.	c #FEFEFE",
"d.	c #858585",
"e.	c #474747",
"f.	c #4D4D4D",
"g.	c #525252",
"h.	c #CFCFCF",
"i.	c #B9B9B9",
"j.	c #C7C8C8",
"k.	c #7F5858",
"l.	c #ACA8A7",
"m.	c #3A3C3C",
"n.	c #121212",
"o.	c #7C7C7C",
"p.	c #040404",
"q.	c #A8A8A8",
"r.	c #717171",
"s.	c #BCBCBC",
"t.	c #4E4F4E",
"u.	c #696868",
"v.	c #DDDDDD",
"w.	c #D9CDCD",
"x.	c #2B0000",
"y.	c #958E8C",
"z.	c #2D3131",
"A.	c #111111",
"B.	c #131212",
"C.	c #858B8C",
"D.	c #2D2D2D",
"E.	c #090909",
"F.	c #949494",
"G.	c #5E5E5E",
"H.	c #504F4F",
"I.	c #414141",
"J.	c #7D7D7D",
"K.	c #F1F2F3",
"L.	c #7B4746",
"M.	c #E76F7E",
"N.	c #DD6A77",
"O.	c #CA8F97",
"P.	c #3C403F",
"Q.	c #000000",
"R.	c #F5FFFF",
"S.	c #717576",
"T.	c #FAFAFA",
"U.	c #EAEAEA",
"V.	c #919191",
"W.	c #6C6D6C",
"X.	c #484848",
"Y.	c #383837",
"Z.	c #858586",
"`.	c #CFDBDC",
" +	c #C4A7AB",
".+	c #C9A7AD",
"++	c #DFB5BC",
"@+	c #F4FFFF",
"#+	c #C4CDCF",
"$+	c #353637",
"%+	c #424242",
"&+	c #868686",
"*+	c #DCE2E2",
"=+	c #E7F3F4",
"-+	c #E5F1F3",
";+	c #E3EEF0",
">+	c #F2FEFF",
",+	c #232323",
"'+	c #060606",
")+	c #070707",
"!+	c #898989",
"~+	c #0E0E0E",
"{+	c #A2A2A2",
"]+	c #787979",
"^+	c #3F3F3E",
"/+	c #E4E5E4",
"(+	c #DAE6E7",
"_+	c #F6FFFF",
":+	c #0B0A0A",
"<+	c #151515",
"[+	c #0D0D0D",
"}+	c #0C0C0C",
"|+	c #0F0F0F",
"1+	c #454545",
"2+	c #989898",
"3+	c #9C9C9C",
"4+	c #757676",
"5+	c #676766",
"6+	c #DDE0E1",
"7+	c #E9F5F6",
"8+	c #ECF8FA",
"9+	c #393A3A",
"0+	c #4C4E4F",
"a+	c #585B5B",
"b+	c #FEFFFF",
"c+	c #5C5F60",
"d+	c #0F0F0E",
"e+	c #020202",
"f+	c #434445",
"g+	c #6E6E6E",
"h+	c #272727",
"i+	c #171717",
"j+	c #A7A7A7",
"k+	c #656565",
"l+	c #AFAFAF",
"m+	c #767878",
"n+	c #D5E0E1",
"o+	c #E2EEEF",
"p+	c #878C8D",
"q+	c #5A5D5E",
"r+	c #E9F5F7",
"s+	c #F0FCFD",
"t+	c #9AA3A4",
"u+	c #E7ECEC",
"v+	c #F0F1F1",
"w+	c #F3F4F4",
"x+	c #535352",
"y+	c #535453",
"z+	c #D1D1D1",
"A+	c #E2E5E5",
"B+	c #676A6A",
"C+	c #DAE1E3",
"D+	c #DBE2E3",
"E+	c #E2E5E6",
"F+	c #DFDFDF",
"G+	c #6F6F6F",
"H+	c #EEEEEE",
"I+	c #DBDBDB",
"J+	c #6A6B6B",
"K+	c #434343",
"L+	c #D7D7D7",
"M+	c #F1F1F1",
"N+	c #ADADAD",
"O+	c #9F9F9F",
"P+	c #8F8F8F",
"Q+	c #D4D4D4",
"R+	c #5F5F5F",
"S+	c #40403F",
"T+	c #3F3F3F",
"U+	c #848484",
"V+	c #777777",
"W+	c #999999",
"X+	c #3C3C3C",
"Y+	c #3F403F",
"Z+	c #5C5C5C",
"`+	c #7F7F7F",
" @	c #5C5D5D",
".@	c #4F4F4F",
"+@	c #828282",
"@@	c #646465",
"#@	c #3E3F3E",
"$@	c #474847",
"%@	c #585857",
"&@	c #767676",
"*@	c #3D3D3E",
"=@	c #383838",
"-@	c #353535",
";@	c #333333",
"                                                                ",
"                        . + @ # # + $ %                         ",
"                  & * = - ; > , ' ) ! ~ { &                     ",
"                ] ^ / ( _ : < [ [ } : | 1 2 3 4                 ",
"            $ 5 6 7 8 9 0 a b c c d e 1 f g h i j               ",
"          k l m n o p f q r s t u v w x y z z A B C             ",
"        D l E F G q v H I J K K L 8 M N O q q 1 L P j           ",
"        Q R S T U g V [ K K K K K K K < } W A 0 X Y Z `         ",
"       ...+.7 @.#.$.< K F K K K K K K K K < o %.y [ &.*.=.      ",
"      -.7 ;.f >.| f v z F K F t F ,.+.'.8 K K ).!.~.r e +       ",
"    {.].L ;.^.M o /.(._.N [ :.<.[.' <.q }.d K K |.x f ).1.=.    ",
"    2.w $.3.4.5.6.7.8.9.0._ K a.| v b b.y $.K K G |.c.q d.e.    ",
"  f.g.h.,.i.j.k.l.m.n.o.p.0.c q.r.a.!.K K K K K K 4.q f s.t.    ",
"  -.u.%.0 v.} w.x.y.z.A.B.C.D.E.B d < K X K K < K b z F.t G.H.  ",
"  I.J.[ 0 n K.L.M.N.O.P.Q.R.S.{ T.U.K F !.K K K K K n V.F W.X.  ",
"  Y.Z.y y |.!.`. +.+++@+Q.#+$+Z c K K 0 %+U K K K !.$.S K P {.  ",
"  5 &+4.%+v.X *+=+-+;+>+,+'+8.)+!+q c q ~+{+< K K [ n S F ]+^+  ",
"  j o.z q A [ /+(+;+;+_+:+A.<+[+}+A.% 2.|+1+2+U F [ 8 3+L 4+-.  ",
"  k 5+F T.+.).X 6+7+;+8+9+0+a+b+c+d+e+f+g+h+i+D.[ #.9 | j+k+&   ",
"    % h.:.q l+K I m+n+o+p+q+r+;+s+t+u+v+w+^.3+g+J.g :.U.i.x+y+  ",
"    (.s u 1 '.X z+:.G A+*+B+C+D+E+!.[ K K F K U.U.F+0 ;.J.%     ",
"    # G+X y d r F F K F G H+U.X < K K K K K < K I+L M J J+e.    ",
"      K+a.;.^.8 L+K K K K K K K K K K K K K K g M+N+O+P+D       ",
"      + k+Q+[ | | | < K K K K K K K F K K X _ #.0 z A R+*       ",
"        S+J.N p d Y 4.U.< K K K K K K X U.W K J G +.> 2.        ",
"          T+U+%.!.c q '.I h.%.X } p s.<.O q M+$.I r.2.g.        ",
"            C V+o f W+&.q L O T t ~.[ q I ^.H+t Z X+=.          ",
"              Y+Z+q.`+s.[ z 9 9 9 9 H+M+3+{+!+ @5 .@            ",
"                `  .@.P+s.Q+: < K p z+V +@@@(.{                 ",
"                    %+#@$@%@) ].&@/ ! K+*@=@                    ",
"                          I.Q -@;@-@T+                          ",
"                                                                "};
